<svg width="200" height="54" viewBox="0 0 200 54" fill="none" xmlns="http://www.w3.org/2000/svg">
<path d="M55.0795 28.0016L54.7542 28.7936C54.5633 29.2391 54.489 29.5715 54.5279 29.7978C54.5739 30.0241 54.6623 30.2008 54.7967 30.3211C54.9275 30.4342 55.0548 30.5544 55.1785 30.6746C55.2987 30.7878 55.3624 30.9646 55.3624 31.1979C55.3624 31.4808 55.2492 31.6646 55.0229 31.7495C54.7967 31.8343 54.5173 31.8768 54.1885 31.8768H51.9822C51.5756 31.8768 51.2503 31.8308 51.0064 31.7353C50.7589 31.6434 50.6387 31.4631 50.6387 31.1979C50.6387 30.9646 50.7094 30.7842 50.8508 30.6605C50.9922 30.5297 51.169 30.3988 51.3882 30.2645C51.6145 30.1337 51.8408 29.9604 52.0671 29.7412C52.2934 29.5255 52.4808 29.2109 52.6328 28.7936L56.7625 18.6391C56.911 18.2254 56.9605 17.9108 56.9039 17.6916C56.8544 17.4759 56.7554 17.2956 56.6069 17.1541C56.4549 17.0127 56.3135 16.8677 56.1826 16.7157C56.0483 16.5672 55.9846 16.3727 55.9846 16.1359C55.9846 15.8813 56.0554 15.7045 56.1968 15.5984C56.3453 15.4853 56.5397 15.4287 56.7766 15.4287H59.7042C60.1744 15.4287 60.5103 15.655 60.7083 16.1076L65.6725 28.6522C65.8775 29.1437 66.0826 29.5079 66.2806 29.7412C66.4857 29.9781 66.6766 30.1584 66.8463 30.2786C67.0231 30.3918 67.161 30.512 67.2564 30.6322C67.359 30.7453 67.412 30.9221 67.412 31.1555C67.412 31.4383 67.3165 31.6363 67.1292 31.7495C66.9382 31.8556 66.6059 31.9051 66.125 31.9051H61.8115C61.3872 31.9051 61.076 31.8556 60.878 31.7495C60.6871 31.6363 60.5952 31.4383 60.5952 31.1555C60.5952 30.9009 60.6694 30.7171 60.8215 30.6039C60.9806 30.4837 61.1468 30.36 61.3165 30.2362C61.4933 30.116 61.6135 29.9392 61.67 29.7129C61.7337 29.4796 61.6736 29.126 61.4862 28.6522L61.274 28.1148C61.1963 27.9274 61.1185 27.7824 61.0336 27.6764C60.9558 27.5738 60.8285 27.5031 60.6518 27.4642C60.4714 27.4183 60.1851 27.39 59.7891 27.3794C59.4001 27.3723 58.8556 27.3652 58.1485 27.3652C57.4414 27.3652 56.8933 27.3723 56.5079 27.3794C56.119 27.39 55.8361 27.4147 55.6594 27.4501C55.479 27.489 55.3518 27.5491 55.2775 27.6339C55.2103 27.7188 55.1431 27.8425 55.0795 28.0016ZM58.1626 25.6398C58.8698 25.6398 59.3683 25.6363 59.6618 25.6257C59.9517 25.608 60.1073 25.5514 60.1285 25.4559C60.1568 25.364 60.132 25.212 60.0578 25.0034L58.1909 20.209L56.3382 24.8619C56.2427 25.1165 56.2003 25.3004 56.2109 25.4135C56.2286 25.5196 56.3842 25.5832 56.6776 25.6115C56.9676 25.6327 57.4626 25.6398 58.1626 25.6398Z" fill="white"/>
<path d="M67.9504 15.4287H73.4096C75.0784 15.4287 76.4962 15.6904 77.6665 16.2066C78.8439 16.7263 79.7491 17.4582 80.382 18.3987C81.0219 19.3427 81.3437 20.4565 81.3437 21.7364C81.3437 23.529 80.7214 24.8584 79.4768 25.7247C78.2393 26.5838 76.4432 27.0117 74.0884 27.0117H72.5469C72.3842 27.0117 72.264 27.0364 72.1791 27.0824C72.1014 27.1319 72.066 27.2627 72.066 27.4784V27.7188C72.066 28.4365 72.1438 28.9634 72.3064 29.3028C72.4655 29.6422 72.6494 29.8897 72.858 30.0382C73.0737 30.1902 73.2575 30.3352 73.4096 30.4766C73.5687 30.611 73.65 30.8373 73.65 31.1555C73.65 31.4383 73.551 31.6363 73.353 31.7495C73.155 31.8556 72.7908 31.9051 72.264 31.9051H67.9504C67.4484 31.9051 67.0913 31.8556 66.8756 31.7495C66.667 31.6363 66.5645 31.4383 66.5645 31.1555C66.5645 30.9009 66.614 30.71 66.72 30.5756C66.8332 30.4448 66.9675 30.3281 67.1302 30.2221C67.2893 30.1195 67.4484 29.9816 67.611 29.8119C67.7701 29.6422 67.908 29.3982 68.0212 29.0765C68.1343 28.7477 68.1909 28.2951 68.1909 27.7188V19.813C68.1909 19.1624 68.1343 18.6639 68.0212 18.3138C67.908 17.9673 67.7701 17.7128 67.611 17.5501C67.459 17.3804 67.2999 17.2461 67.1302 17.14C66.9675 17.0375 66.8332 16.9243 66.72 16.8006C66.614 16.6697 66.5645 16.4611 66.5645 16.1783C66.5645 15.8954 66.667 15.7045 66.8756 15.5984C67.0913 15.4853 67.4484 15.4287 67.9504 15.4287ZM73.8763 25.3852C75.0077 25.3852 75.8845 25.0882 76.5068 24.4942C77.1291 23.9002 77.4403 23.0906 77.4403 22.0617C77.4403 20.9515 77.2352 20.0216 76.8321 19.2755C76.4361 18.5331 75.927 17.9709 75.3047 17.5926C74.6824 17.2072 74.0354 17.0127 73.3671 17.0127C72.7731 17.0127 72.4054 17.0551 72.264 17.14C72.1296 17.2248 72.066 17.3946 72.066 17.6491V24.5791C72.066 24.8832 72.1968 25.0953 72.462 25.2155C72.7342 25.3287 73.2045 25.3852 73.8763 25.3852Z" fill="white"/>
<path d="M81.8801 15.4287H87.3392C89.0081 15.4287 90.4259 15.6904 91.5962 16.2066C92.7736 16.7263 93.6788 17.4582 94.3116 18.3987C94.9516 19.3427 95.2734 20.4565 95.2734 21.7364C95.2734 23.529 94.6511 24.8584 93.4065 25.7247C92.169 26.5838 90.3729 27.0117 88.0181 27.0117H86.4765C86.3139 27.0117 86.1937 27.0364 86.1088 27.0824C86.031 27.1319 85.9957 27.2627 85.9957 27.4784V27.7188C85.9957 28.4365 86.0735 28.9634 86.2361 29.3028C86.3952 29.6422 86.5791 29.8897 86.7877 30.0382C87.0034 30.1902 87.1872 30.3352 87.3392 30.4766C87.4984 30.611 87.5797 30.8373 87.5797 31.1555C87.5797 31.4383 87.4807 31.6363 87.2827 31.7495C87.0847 31.8556 86.7205 31.9051 86.1937 31.9051H81.8801C81.3781 31.9051 81.021 31.8556 80.8053 31.7495C80.5967 31.6363 80.4941 31.4383 80.4941 31.1555C80.4941 30.9009 80.5436 30.71 80.6497 30.5756C80.7629 30.4448 80.8972 30.3281 81.0599 30.2221C81.219 30.1195 81.3781 29.9816 81.5407 29.8119C81.6998 29.6422 81.8377 29.3982 81.9508 29.0765C82.064 28.7477 82.1206 28.2951 82.1206 27.7188V19.813C82.1206 19.1624 82.064 18.6639 81.9508 18.3138C81.8377 17.9673 81.6998 17.7128 81.5407 17.5501C81.3887 17.3804 81.2296 17.2461 81.0599 17.14C80.8972 17.0375 80.7629 16.9243 80.6497 16.8006C80.5436 16.6697 80.4941 16.4611 80.4941 16.1783C80.4941 15.8954 80.5967 15.7045 80.8053 15.5984C81.021 15.4853 81.3781 15.4287 81.8801 15.4287ZM87.806 25.3852C88.9374 25.3852 89.8142 25.0882 90.4365 24.4942C91.0588 23.9002 91.3699 23.0906 91.3699 22.0617C91.3699 20.9515 91.1649 20.0216 90.7618 19.2755C90.3658 18.5331 89.8567 17.9709 89.2344 17.5926C88.6121 17.2072 87.9651 17.0127 87.2968 17.0127C86.7028 17.0127 86.3351 17.0551 86.1937 17.14C86.0593 17.2248 85.9957 17.3946 85.9957 17.6491V24.5791C85.9957 24.8832 86.1265 25.0953 86.3917 25.2155C86.6639 25.3287 87.1342 25.3852 87.806 25.3852Z" fill="white"/>
<path d="M106.443 26.5874C106.715 26.6545 106.882 26.7854 106.938 26.9834C107.002 27.1743 107.027 27.4465 107.009 27.8036C106.998 28.5037 106.956 29.1012 106.882 29.5998C106.814 30.0912 106.733 30.5049 106.641 30.8443C106.546 31.2227 106.362 31.4949 106.09 31.6646C105.824 31.8273 105.34 31.9051 104.633 31.9051H95.8079C95.3058 31.9051 94.9487 31.8556 94.733 31.7495C94.5244 31.6363 94.4219 31.4383 94.4219 31.1555C94.4219 30.8726 94.4714 30.6711 94.5774 30.5473C94.6906 30.4165 94.8249 30.3034 94.9876 30.2079C95.1467 30.1054 95.3058 29.9746 95.4684 29.8119C95.6275 29.6422 95.7654 29.3841 95.8786 29.0341C95.9917 28.677 96.0483 28.1714 96.0483 27.5208V19.615C96.0483 18.9008 95.967 18.3704 95.8079 18.031C95.6452 17.6916 95.4614 17.4511 95.2563 17.3097C95.0477 17.1612 94.8638 17.0127 94.7047 16.8713C94.5421 16.7298 94.4643 16.5 94.4643 16.1783C94.4643 15.8954 94.5633 15.7045 94.7613 15.5984C94.9593 15.4853 95.3199 15.4287 95.8503 15.4287H100.164C100.662 15.4287 101.016 15.4853 101.225 15.5984C101.44 15.7045 101.55 15.8954 101.55 16.1783C101.55 16.4328 101.493 16.6273 101.38 16.7581C101.274 16.8925 101.143 17.0092 100.984 17.1117C100.832 17.2178 100.673 17.3592 100.503 17.536C100.341 17.7057 100.206 17.9532 100.093 18.2714C99.98 18.5932 99.9234 19.0422 99.9234 19.615V29.1472C99.9234 29.5149 100.037 29.7836 100.263 29.9533C100.496 30.1231 100.959 30.2079 101.649 30.2079L102.497 30.1938C103.212 30.1938 103.756 29.9604 104.124 29.4866C104.492 29.0164 104.88 28.3481 105.298 27.4784C105.496 27.0753 105.683 26.8137 105.863 26.7005C106.051 26.5803 106.245 26.5414 106.443 26.5874Z" fill="white"/>
<path d="M119.316 26.5874C119.599 26.6545 119.769 26.7854 119.825 26.9834C119.889 27.1743 119.914 27.4465 119.896 27.8036C119.885 28.5037 119.843 29.1012 119.769 29.5998C119.702 30.0912 119.62 30.5049 119.528 30.8443C119.415 31.2227 119.224 31.4949 118.963 31.6646C118.697 31.8273 118.217 31.9051 117.52 31.9051H107.804C107.302 31.9051 106.945 31.8556 106.729 31.7495C106.521 31.6363 106.418 31.4383 106.418 31.1555C106.418 30.8726 106.467 30.6711 106.574 30.5473C106.687 30.4165 106.821 30.3034 106.984 30.2079C107.143 30.1054 107.302 29.9746 107.465 29.8119C107.624 29.6422 107.762 29.3841 107.875 29.0341C107.988 28.677 108.044 28.1714 108.044 27.5208V19.813C108.044 19.1624 107.988 18.6639 107.875 18.3138C107.762 17.9673 107.624 17.7128 107.465 17.5501C107.312 17.3804 107.153 17.2461 106.984 17.14C106.821 17.0375 106.687 16.9243 106.574 16.8006C106.467 16.6697 106.418 16.4611 106.418 16.1783C106.418 15.8954 106.521 15.7045 106.729 15.5984C106.945 15.4853 107.302 15.4287 107.804 15.4287H117.082C117.768 15.4287 118.255 15.4853 118.538 15.5984C118.821 15.7045 119.023 15.9379 119.146 16.3056C119.38 16.9278 119.592 17.7269 119.783 18.6957C119.857 19.0457 119.868 19.3321 119.811 19.5584C119.762 19.7776 119.627 19.9226 119.401 19.9968C118.984 20.1383 118.588 19.9261 118.213 19.3604C117.722 18.625 117.202 18.0699 116.657 17.6916C116.12 17.3168 115.483 17.1258 114.748 17.1258H113.73C112.994 17.1258 112.506 17.2178 112.273 17.3946C112.036 17.5643 111.92 17.8401 111.92 18.2148V20.4211C111.92 20.8949 112.047 21.206 112.301 21.3545C112.556 21.5066 112.924 21.5808 113.405 21.5808H113.447C113.871 21.5808 114.204 21.5384 114.451 21.4535C114.695 21.3616 114.893 21.2661 115.045 21.1707C115.204 21.0681 115.349 20.9727 115.483 20.8878C115.625 20.7959 115.802 20.7464 116.021 20.7464C116.283 20.7464 116.463 20.8171 116.558 20.9585C116.65 21.0929 116.721 21.252 116.77 21.4394L117.379 24.4518C117.471 24.8584 117.481 25.1377 117.407 25.2862C117.329 25.4277 117.166 25.5337 116.912 25.5974C116.601 25.6645 116.336 25.5832 116.12 25.3569C115.911 25.1236 115.696 24.8443 115.469 24.5225C115.25 24.1937 114.988 23.9002 114.677 23.6457C114.373 23.384 113.963 23.2497 113.447 23.2497H113.405C112.924 23.2497 112.556 23.3204 112.301 23.4618C112.047 23.6032 111.92 23.9144 111.92 24.3952V29.1331C111.92 29.5114 112.047 29.7836 112.301 29.9533C112.556 30.1231 113.097 30.2079 113.928 30.2079L115.384 30.1938C115.872 30.1938 116.268 30.0912 116.572 29.8826C116.873 29.667 117.145 29.3558 117.393 28.9492C117.637 28.5355 117.902 28.0441 118.185 27.4784C118.39 27.0753 118.581 26.8137 118.75 26.7005C118.92 26.5803 119.108 26.5414 119.316 26.5874Z" fill="white"/>
<path d="M131.152 32.1452C129.519 32.1452 128.073 31.8128 126.811 31.1411C125.555 30.4622 124.576 29.5111 123.869 28.2842C123.169 27.0609 122.822 25.6218 122.822 23.9707C122.822 22.765 123.027 21.6336 123.445 20.5764C123.869 19.5122 124.456 18.5787 125.212 17.7761C125.965 16.9665 126.853 16.3336 127.871 15.881C128.89 15.4284 129.996 15.2021 131.195 15.2021C132.146 15.2021 132.892 15.2729 133.429 15.4143C133.967 15.5557 134.356 15.6264 134.603 15.6264C134.808 15.6264 134.974 15.5946 135.098 15.5274C135.218 15.4532 135.342 15.3825 135.466 15.3153C135.597 15.2516 135.766 15.2163 135.975 15.2163C136.191 15.2163 136.385 15.2976 136.555 15.4567C136.732 15.6194 136.873 15.9482 136.979 16.4467C137.071 16.8993 137.167 17.4014 137.262 17.9458C137.354 18.4833 137.449 19.1126 137.545 19.8268C137.591 20.1946 137.563 20.4774 137.46 20.6754C137.365 20.8663 137.156 20.9795 136.838 21.0148C136.573 21.0254 136.35 20.937 136.173 20.7461C135.993 20.5587 135.766 20.2723 135.494 19.8834C135.134 19.3672 134.752 18.8793 134.349 18.4267C133.953 17.9671 133.489 17.5923 132.963 17.3094C132.443 17.0266 131.796 16.8851 131.025 16.8851C130.099 16.8851 129.321 17.1256 128.692 17.6064C128.069 18.0873 127.595 18.7343 127.277 19.544C126.955 20.3466 126.796 21.2553 126.796 22.2735C126.796 23.801 126.998 25.1657 127.405 26.3608C127.808 27.5594 128.402 28.5034 129.187 29.1894C129.979 29.8682 130.93 30.2076 132.043 30.2076C132.355 30.2076 132.694 30.1617 133.062 30.0662C133.429 29.9637 133.74 29.7975 133.995 29.5712C134.257 29.3379 134.391 29.0409 134.391 28.6802V27.1811C134.391 26.7108 134.31 26.3467 134.151 26.0921C133.999 25.8375 133.804 25.6501 133.571 25.5264C133.334 25.4062 133.104 25.3072 132.878 25.2294C132.652 25.1445 132.454 25.0455 132.284 24.9324C132.121 24.8122 132.043 24.6318 132.043 24.395C132.043 24.1121 132.135 23.9212 132.326 23.8151C132.524 23.702 132.881 23.6383 133.401 23.6171L138.026 23.5747C138.429 23.5747 138.726 23.6312 138.917 23.7444C139.115 23.8505 139.214 24.0414 139.214 24.3242C139.214 24.5611 139.171 24.745 139.086 24.8758C139.002 24.9996 138.892 25.1304 138.761 25.2718C138.637 25.4132 138.528 25.6218 138.436 25.8941C138.34 26.1699 138.294 26.58 138.294 27.1245V28.4964C138.294 29.0727 137.987 29.6384 137.375 30.1935C136.771 30.7521 135.933 31.2189 134.858 31.5936C133.783 31.9613 132.545 32.1452 131.152 32.1452Z" fill="white"/>
<path d="M150.798 25.2721L152.792 28.6805C153.026 29.1048 153.266 29.423 153.514 29.6281C153.758 29.8261 153.973 29.9887 154.164 30.1089C154.352 30.2221 154.504 30.3564 154.617 30.5049C154.73 30.657 154.786 30.8726 154.786 31.1555C154.786 31.4383 154.687 31.6363 154.489 31.7495C154.299 31.8556 153.956 31.9051 153.457 31.9051H149.525C149.147 31.9051 148.864 31.8556 148.677 31.7495C148.486 31.6363 148.394 31.4383 148.394 31.1555C148.394 30.9221 148.45 30.7241 148.564 30.5615C148.684 30.3918 148.797 30.2221 148.903 30.0523C149.016 29.8756 149.076 29.6705 149.087 29.4442C149.105 29.2179 149.023 28.928 148.846 28.5674L147.658 26.4742C147.506 26.156 147.312 25.9368 147.079 25.8237C146.852 25.7034 146.52 25.6115 146.089 25.5549C145.693 25.509 145.353 25.4984 145.07 25.5267C144.788 25.5549 144.646 25.7459 144.646 26.0924V27.7188C144.646 28.4365 144.724 28.9634 144.887 29.3028C145.046 29.6422 145.229 29.8897 145.438 30.0382C145.654 30.1902 145.838 30.3352 145.99 30.4766C146.149 30.611 146.23 30.8373 146.23 31.1555C146.23 31.4383 146.131 31.6363 145.933 31.7495C145.735 31.8556 145.371 31.9051 144.844 31.9051H140.531C140.028 31.9051 139.671 31.8556 139.456 31.7495C139.247 31.6363 139.145 31.4383 139.145 31.1555C139.145 30.9009 139.194 30.71 139.3 30.5756C139.413 30.4448 139.548 30.3281 139.71 30.2221C139.869 30.1195 140.028 29.9816 140.191 29.8119C140.35 29.6422 140.488 29.3982 140.601 29.0765C140.714 28.7477 140.771 28.2951 140.771 27.7188V19.813C140.771 19.1624 140.714 18.6639 140.601 18.3138C140.488 17.9673 140.35 17.7128 140.191 17.5501C140.039 17.3804 139.88 17.2461 139.71 17.14C139.548 17.0375 139.413 16.9243 139.3 16.8006C139.194 16.6697 139.145 16.4611 139.145 16.1783C139.145 15.8954 139.247 15.7045 139.456 15.5984C139.671 15.4853 140.028 15.4287 140.531 15.4287H146.06C147.729 15.4287 149.119 15.6797 150.232 16.1783C151.343 16.6697 152.177 17.3238 152.736 18.1441C153.291 18.9573 153.57 19.8342 153.57 20.7747C153.57 21.8142 153.337 22.7193 152.877 23.4901C152.414 24.2644 151.721 24.8584 150.798 25.2721ZM146.414 24.0417C147.195 24.1548 147.821 24.077 148.295 23.8012C148.765 23.529 149.105 23.1471 149.313 22.6557C149.529 22.1571 149.638 21.6374 149.638 21.1C149.638 20.3363 149.476 19.6433 149.158 19.021C148.836 18.3987 148.397 17.9108 147.842 17.5501C147.284 17.193 146.644 17.0127 145.919 17.0127C145.371 17.0127 145.021 17.0551 144.872 17.14C144.72 17.2248 144.646 17.3946 144.646 17.6491V23.0092C144.646 23.3593 144.819 23.6032 145.169 23.7447C145.516 23.8861 145.933 23.9851 146.414 24.0417Z" fill="white"/>
<path d="M162.527 31.9186C161.423 31.9186 160.394 31.7242 159.443 31.3388C158.499 30.9534 157.668 30.4124 156.954 29.7124C156.237 29.0158 155.681 28.192 155.285 27.2374C154.889 26.2757 154.691 25.215 154.691 24.0553C154.691 22.8036 154.907 21.6298 155.342 20.5337C155.784 19.4306 156.403 18.4653 157.195 17.6344C157.994 16.7965 158.934 16.1459 160.009 15.6827C161.084 15.2125 162.251 14.9756 163.517 14.9756C165.1 14.9756 166.476 15.3362 167.646 16.0504C168.813 16.7576 169.718 17.7193 170.362 18.9356C171.002 20.1518 171.323 21.5202 171.323 23.037C171.323 24.2921 171.101 25.4625 170.659 26.5444C170.224 27.6298 169.612 28.5739 168.82 29.3729C168.035 30.1755 167.109 30.8014 166.034 31.2539C164.959 31.6959 163.789 31.9186 162.527 31.9186ZM163.842 29.8255C164.736 29.8255 165.454 29.6134 165.991 29.1891C166.536 28.7648 166.932 28.1956 167.179 27.4778C167.434 26.753 167.561 25.9433 167.561 25.0452C167.561 24.0835 167.438 23.1218 167.194 22.1601C166.946 21.1984 166.6 20.318 166.147 19.5154C165.694 18.7164 165.143 18.0729 164.492 17.592C163.842 17.1041 163.106 16.8566 162.286 16.8566C161.427 16.8566 160.716 17.0793 160.151 17.5213C159.592 17.9562 159.178 18.5396 158.906 19.275C158.63 20.0104 158.496 20.8272 158.496 21.7217C158.496 22.6657 158.616 23.6168 158.864 24.5785C159.107 25.5332 159.461 26.403 159.924 27.195C160.384 27.9869 160.946 28.6234 161.607 29.1042C162.265 29.5851 163.011 29.8255 163.842 29.8255Z" fill="white"/>
<path d="M184.171 15.2304H186.377C186.781 15.2304 187.106 15.2799 187.353 15.3719C187.597 15.4673 187.721 15.6476 187.721 15.9093C187.721 16.1462 187.643 16.33 187.495 16.4609C187.343 16.5846 187.162 16.7119 186.957 16.8427C186.749 16.9771 186.526 17.1539 186.293 17.3801C186.066 17.5993 185.875 17.9176 185.727 18.3418L180.848 30.8016C180.752 31.0562 180.625 31.2542 180.466 31.3956C180.314 31.5371 179.971 31.6431 179.433 31.7068C178.811 31.781 178.394 31.7916 178.189 31.7351C177.991 31.6785 177.825 31.5052 177.694 31.2118L172.617 18.455C172.426 17.9671 172.228 17.6029 172.023 17.366C171.825 17.1326 171.634 16.9559 171.457 16.8427C171.287 16.7225 171.146 16.6023 171.033 16.4891C170.926 16.3689 170.877 16.1886 170.877 15.9517C170.877 15.6689 170.969 15.4779 171.16 15.3719C171.358 15.2587 171.701 15.2021 172.192 15.2021H176.492C176.905 15.2021 177.206 15.2587 177.397 15.3719C177.595 15.4779 177.694 15.6689 177.694 15.9517C177.694 16.2063 177.616 16.3972 177.467 16.5174C177.326 16.6306 177.163 16.7543 176.987 16.8851C176.817 17.0089 176.697 17.1821 176.633 17.4084C176.576 17.6347 176.64 17.9847 176.831 18.455L180.282 27.2518L183.634 18.3418C183.803 17.8822 183.867 17.5357 183.832 17.3094C183.793 17.0831 183.704 16.9134 183.563 16.8003C183.429 16.6801 183.301 16.5599 183.181 16.4467C183.057 16.3265 182.997 16.1462 182.997 15.9093C182.997 15.6264 183.11 15.4426 183.337 15.3577C183.563 15.2729 183.839 15.2304 184.171 15.2304Z" fill="white"/>
<path d="M199.414 26.3608C199.697 26.428 199.866 26.5588 199.923 26.7568C199.987 26.9477 200.011 27.22 199.994 27.5771C199.983 28.2772 199.941 28.8747 199.866 29.3732C199.799 29.8647 199.718 30.2784 199.626 30.6178C199.513 30.9961 199.322 31.2683 199.06 31.4381C198.795 31.6007 198.314 31.6785 197.618 31.6785H187.902C187.4 31.6785 187.042 31.629 186.827 31.5229C186.618 31.4098 186.516 31.2118 186.516 30.9289C186.516 30.6461 186.565 30.4445 186.671 30.3208C186.784 30.19 186.919 30.0768 187.081 29.9814C187.24 29.8788 187.4 29.748 187.562 29.5854C187.721 29.4156 187.859 29.1575 187.972 28.8075C188.085 28.4504 188.142 27.9448 188.142 27.2942V19.5864C188.142 18.9358 188.085 18.4373 187.972 18.0873C187.859 17.7408 187.721 17.4862 187.562 17.3236C187.41 17.1539 187.251 17.0195 187.081 16.9134C186.919 16.8109 186.784 16.6977 186.671 16.574C186.565 16.4432 186.516 16.2346 186.516 15.9517C186.516 15.6689 186.618 15.4779 186.827 15.3719C187.042 15.2587 187.4 15.2021 187.902 15.2021H197.179C197.865 15.2021 198.353 15.2587 198.636 15.3719C198.919 15.4779 199.12 15.7113 199.244 16.079C199.477 16.7013 199.69 17.5004 199.881 18.4691C199.955 18.8192 199.965 19.1056 199.909 19.3318C199.859 19.5511 199.725 19.696 199.499 19.7703C199.081 19.9117 198.685 19.6996 198.311 19.1338C197.819 18.3984 197.299 17.8433 196.755 17.465C196.218 17.0902 195.581 16.8993 194.846 16.8993H193.827C193.092 16.8993 192.604 16.9912 192.371 17.168C192.134 17.3377 192.017 17.6135 192.017 17.9883V20.1946C192.017 20.6683 192.144 20.9795 192.399 21.128C192.654 21.28 193.021 21.3543 193.502 21.3543H193.545C193.969 21.3543 194.301 21.3118 194.549 21.227C194.793 21.135 194.991 21.0396 195.143 20.9441C195.302 20.8416 195.447 20.7461 195.581 20.6613C195.723 20.5693 195.899 20.5198 196.119 20.5198C196.38 20.5198 196.561 20.5905 196.656 20.732C196.748 20.8663 196.819 21.0254 196.868 21.2128L197.476 24.2252C197.568 24.6318 197.579 24.9112 197.505 25.0597C197.427 25.2011 197.264 25.3072 197.01 25.3708C196.698 25.438 196.433 25.3567 196.218 25.1304C196.009 24.897 195.793 24.6177 195.567 24.296C195.348 23.9671 195.086 23.6737 194.775 23.4191C194.471 23.1575 194.061 23.0231 193.545 23.0231H193.502C193.021 23.0231 192.654 23.0938 192.399 23.2352C192.144 23.3767 192.017 23.6878 192.017 24.1687V28.9065C192.017 29.2848 192.144 29.5571 192.399 29.7268C192.654 29.8965 193.195 29.9814 194.025 29.9814L195.482 29.9672C195.97 29.9672 196.366 29.8647 196.67 29.6561C196.971 29.4404 197.243 29.1293 197.49 28.7226C197.734 28.309 198 27.8175 198.282 27.2518C198.487 26.8487 198.678 26.5871 198.848 26.4739C199.018 26.3537 199.205 26.3148 199.414 26.3608Z" fill="white"/>
<path d="M73.1967 41.1484L72.9845 41.6717C72.8997 41.8803 72.8643 42.0358 72.8855 42.1384C72.9032 42.2338 72.935 42.3045 72.9845 42.3505C73.0411 42.4 73.0906 42.446 73.1401 42.4919C73.1967 42.5308 73.2249 42.5874 73.2249 42.6617C73.2249 42.7571 73.1861 42.8243 73.1118 42.8597C73.034 42.8879 72.9421 42.9021 72.829 42.9021H71.9662C71.8248 42.9021 71.7117 42.8879 71.6268 42.8597C71.549 42.8243 71.5137 42.7607 71.5137 42.6758C71.5137 42.5909 71.542 42.5308 71.5985 42.4919C71.6551 42.446 71.7258 42.4 71.8107 42.3505C71.8955 42.3045 71.9839 42.2338 72.0794 42.1384C72.1713 42.0358 72.2562 41.8803 72.334 41.6717L74.1725 37.0611C74.2291 36.9126 74.2432 36.7995 74.2149 36.7217C74.1867 36.6368 74.1442 36.5732 74.0877 36.5237C74.0311 36.4777 73.9745 36.4318 73.9179 36.3823C73.8614 36.3257 73.8331 36.255 73.8331 36.1701C73.8331 36.011 73.9321 35.9297 74.1301 35.9297H75.1484C75.2969 35.9297 75.4029 36.0075 75.4595 36.156L77.6375 41.6575C77.7117 41.8661 77.7931 42.0217 77.8779 42.1242C77.9628 42.2197 78.0406 42.2904 78.1184 42.3364C78.1926 42.3859 78.2527 42.4283 78.3022 42.4637C78.3482 42.5025 78.3729 42.5627 78.3729 42.6475C78.3729 42.743 78.334 42.8102 78.2598 42.8455C78.182 42.8844 78.0512 42.9021 77.8638 42.9021H76.4778C76.1843 42.9021 76.0394 42.8278 76.0394 42.6758C76.0394 42.5839 76.0676 42.5132 76.1242 42.4637C76.1879 42.4177 76.255 42.3717 76.3222 42.3222C76.3859 42.2763 76.4283 42.202 76.4495 42.0959C76.4778 41.9934 76.4495 41.8484 76.3646 41.6575L76.1808 41.1625C76.1525 41.0883 76.1171 41.0317 76.0818 40.9928C76.0535 40.9468 75.9899 40.915 75.8979 40.8938C75.8131 40.8761 75.6752 40.8655 75.4878 40.8655C75.3075 40.8655 75.0494 40.8655 74.7099 40.8655C74.3493 40.8655 74.0771 40.8655 73.8897 40.8655C73.6987 40.8655 73.5573 40.8761 73.4654 40.8938C73.3805 40.915 73.3169 40.9433 73.2815 40.9787C73.2426 41.0176 73.2143 41.0741 73.1967 41.1484ZM74.7099 40.3281C75.0953 40.3281 75.364 40.3281 75.5161 40.3281C75.6752 40.321 75.76 40.2963 75.7706 40.2574C75.7883 40.222 75.7848 40.1584 75.7565 40.0735L74.6817 37.3298L73.6068 40.0735C73.5785 40.1584 73.5714 40.222 73.5927 40.2574C73.6103 40.2963 73.6987 40.321 73.8614 40.3281C74.0311 40.3281 74.3139 40.3281 74.7099 40.3281Z" fill="white"/>
<path d="M80.3597 35.9297H82.566C83.2731 35.9297 83.8706 36.0287 84.3621 36.2267C84.85 36.4247 85.2531 36.6899 85.5642 37.0187C85.8824 37.3404 86.1158 37.7046 86.2572 38.1077C86.4057 38.5037 86.4835 38.8997 86.4835 39.2957C86.4835 39.7765 86.4057 40.2362 86.2572 40.6675C86.1158 41.0918 85.8931 41.4737 85.5925 41.8131C85.2991 42.1525 84.9207 42.4212 84.4611 42.6192C84.0085 42.8102 83.464 42.9021 82.8347 42.9021H80.3597C80.1688 42.9021 80.0344 42.8879 79.9496 42.8597C79.8647 42.8314 79.8223 42.7677 79.8223 42.6617C79.8223 42.5485 79.8541 42.4743 79.9213 42.4354C79.9849 42.4 80.0556 42.3576 80.1334 42.3081C80.2183 42.2515 80.2925 42.1596 80.3597 42.0252C80.4233 41.8944 80.4587 41.6787 80.4587 41.3747V37.4571C80.4587 37.1566 80.4233 36.9409 80.3597 36.8065C80.2925 36.6757 80.2183 36.5873 80.1334 36.5378C80.0556 36.4919 79.9849 36.4494 79.9213 36.4105C79.8541 36.3646 79.8223 36.2833 79.8223 36.1701C79.8223 36.0782 79.8647 36.0145 79.9496 35.9863C80.0344 35.9509 80.1688 35.9297 80.3597 35.9297ZM82.7215 42.3788C83.3615 42.3788 83.8671 42.2621 84.2348 42.0252C84.6096 41.7919 84.8748 41.4807 85.0268 41.0918C85.1753 40.6958 85.2531 40.2715 85.2531 39.819C85.2531 39.179 85.1293 38.6027 84.8854 38.0935C84.6485 37.5844 84.3055 37.1813 83.853 36.8773C83.4004 36.5767 82.863 36.4247 82.2407 36.4247C81.9932 36.4247 81.8235 36.453 81.7315 36.5095C81.6467 36.5661 81.6043 36.6863 81.6043 36.8631V41.7848C81.6043 41.9192 81.6325 42.0323 81.6891 42.1242C81.7457 42.2091 81.8482 42.2763 82.0003 42.3222C82.1594 42.3611 82.3998 42.3788 82.7215 42.3788Z" fill="white"/>
<path d="M93.5766 35.9297H94.4251C94.5666 35.9297 94.6797 35.9509 94.7646 35.9863C94.8494 36.0145 94.8918 36.0711 94.8918 36.156C94.8918 36.2514 94.8636 36.3221 94.807 36.3681C94.7504 36.407 94.6726 36.4494 94.5807 36.4954C94.4958 36.5449 94.4039 36.6191 94.312 36.7217C94.2271 36.8171 94.1423 36.9621 94.0574 37.1601L91.936 42.6334C91.8971 42.7182 91.8511 42.7854 91.7946 42.8314C91.7451 42.8703 91.6425 42.9021 91.4834 42.9304C91.2854 42.9587 91.1475 42.9622 91.0733 42.9445C90.9955 42.9233 90.9389 42.8667 90.9036 42.7607L88.669 37.1743C88.5912 36.9692 88.5134 36.8171 88.4286 36.7217C88.3437 36.6191 88.2624 36.5449 88.1882 36.4954C88.1104 36.4494 88.0503 36.407 88.0043 36.3681C87.9548 36.3328 87.9336 36.2691 87.9336 36.1843C87.9336 36.0923 87.969 36.0252 88.0467 35.9863C88.121 35.9509 88.2518 35.9297 88.4427 35.9297H89.8287C90.1187 35.9297 90.2672 36.0075 90.2672 36.156C90.2672 36.2514 90.2318 36.3221 90.1682 36.3681C90.1116 36.4176 90.0479 36.4671 89.9843 36.5237C89.9171 36.5732 89.8712 36.6474 89.8429 36.75C89.8217 36.8454 89.857 36.9869 89.9419 37.1743L91.7097 41.6999L93.421 37.1601C93.4952 36.9621 93.5235 36.8171 93.5059 36.7217C93.4952 36.6191 93.4634 36.5449 93.4069 36.4954C93.3503 36.4494 93.2937 36.407 93.2371 36.3681C93.1876 36.3221 93.1664 36.255 93.1664 36.1701C93.1664 36.0782 93.2018 36.0145 93.2796 35.9863C93.3644 35.9509 93.4634 35.9297 93.5766 35.9297Z" fill="white"/>
<path d="M96.8376 41.3464V37.4854C96.8376 37.1955 96.8022 36.9833 96.7386 36.849C96.682 36.7075 96.6113 36.6085 96.5265 36.552C96.4416 36.4954 96.3709 36.4459 96.3143 36.3964C96.2577 36.3504 96.2295 36.2762 96.2295 36.1701C96.2295 36.0782 96.2648 36.0145 96.3426 35.9863C96.4275 35.9509 96.5618 35.9297 96.7527 35.9297H98.0822C98.4393 35.9297 98.6196 36.011 98.6196 36.1701C98.6196 36.2762 98.5842 36.3504 98.5206 36.3964C98.4534 36.4459 98.3792 36.4954 98.2943 36.552C98.2165 36.6085 98.1458 36.7075 98.0822 36.849C98.015 36.9833 97.9832 37.1955 97.9832 37.4854V41.3464C97.9832 41.6398 98.0114 41.8555 98.068 41.9969C98.1317 42.1313 98.2094 42.2232 98.2943 42.2798C98.3792 42.3364 98.4499 42.3894 98.5064 42.4354C98.563 42.4849 98.5913 42.5591 98.5913 42.6617C98.5913 42.7465 98.5489 42.8102 98.464 42.8455C98.3862 42.8844 98.2554 42.9021 98.068 42.9021H96.7386C96.378 42.9021 96.2012 42.8243 96.2012 42.6617C96.2012 42.5591 96.233 42.4849 96.3002 42.4354C96.3638 42.3894 96.4345 42.3364 96.5123 42.2798C96.5972 42.2232 96.6714 42.1313 96.7386 41.9969C96.8022 41.8555 96.8376 41.6398 96.8376 41.3464Z" fill="white"/>
<path d="M102.981 43.001C102.603 43.001 102.306 42.9727 102.09 42.9161C101.871 42.8702 101.694 42.8454 101.553 42.8454C101.418 42.8454 101.327 42.8702 101.27 42.9161C101.22 42.9621 101.15 42.9868 101.058 42.9868C100.973 42.9868 100.895 42.948 100.832 42.8737C100.764 42.7995 100.718 42.658 100.69 42.4494C100.651 42.2514 100.612 42.0393 100.577 41.813C100.538 41.5796 100.51 41.318 100.492 41.0351C100.482 40.9149 100.485 40.8159 100.506 40.7381C100.535 40.6639 100.591 40.625 100.676 40.625C100.75 40.625 100.817 40.6604 100.874 40.724C100.938 40.7806 101.008 40.876 101.086 41.0069C101.178 41.2155 101.305 41.4311 101.468 41.6574C101.638 41.8766 101.853 42.0605 102.119 42.209C102.38 42.3504 102.702 42.4282 103.08 42.4353C103.505 42.4353 103.816 42.3292 104.014 42.11C104.219 41.8943 104.325 41.6504 104.325 41.3746C104.342 41.12 104.268 40.9079 104.099 40.7381C103.936 40.5614 103.724 40.4058 103.462 40.2714C103.197 40.13 102.925 39.9957 102.642 39.8613C102.377 39.7199 102.122 39.589 101.878 39.4653C101.641 39.3451 101.426 39.2072 101.228 39.0552C101.037 38.896 100.888 38.7122 100.775 38.5036C100.669 38.2879 100.619 38.0333 100.619 37.7399C100.619 37.4005 100.711 37.0893 100.902 36.8065C101.1 36.5165 101.376 36.2832 101.737 36.1135C102.094 35.9437 102.522 35.8589 103.024 35.8589C103.257 35.8589 103.469 35.8801 103.66 35.9155C103.847 35.9544 104.003 35.972 104.127 35.972C104.247 35.972 104.332 35.9544 104.381 35.9155C104.438 35.8801 104.509 35.8589 104.594 35.8589C104.685 35.8589 104.756 35.8942 104.806 35.9579C104.862 36.0251 104.912 36.163 104.961 36.368C104.997 36.5377 105.035 36.7181 105.074 36.9055C105.11 37.0964 105.145 37.3085 105.173 37.5419C105.191 37.655 105.188 37.7505 105.159 37.8247C105.131 37.8919 105.067 37.9237 104.975 37.9237C104.852 37.9237 104.71 37.8035 104.551 37.556C104.445 37.3863 104.311 37.2131 104.141 37.0327C103.978 36.856 103.791 36.7039 103.575 36.5802C103.367 36.46 103.123 36.3963 102.84 36.3963C102.479 36.3963 102.203 36.4882 102.005 36.665C101.814 36.8453 101.723 37.0752 101.723 37.358C101.723 37.5949 101.786 37.7929 101.921 37.952C102.062 38.1041 102.253 38.249 102.5 38.3904C102.755 38.5248 103.041 38.6733 103.363 38.843C103.646 38.9844 103.915 39.1188 104.169 39.239C104.424 39.3628 104.65 39.5007 104.848 39.6492C105.046 39.8012 105.205 39.9815 105.329 40.1866C105.449 40.3846 105.516 40.6321 105.527 40.922C105.534 41.3569 105.417 41.7281 105.173 42.0393C104.936 42.3434 104.622 42.5767 104.226 42.7464C103.837 42.9055 103.423 42.9904 102.981 43.001Z" fill="white"/>
<path d="M110.574 43.0014C109.931 43.0014 109.365 42.86 108.877 42.5772C108.385 42.2872 108 41.8948 107.717 41.4033C107.434 40.9048 107.293 40.3355 107.293 39.692C107.293 39.1546 107.381 38.6561 107.562 38.1929C107.749 37.7227 108.007 37.3125 108.34 36.9625C108.679 36.6054 109.068 36.3261 109.513 36.1281C109.966 35.9301 110.461 35.8311 110.998 35.8311C111.656 35.8311 112.229 35.9831 112.71 36.2836C113.198 36.5771 113.576 36.9766 113.841 37.4858C114.113 37.9949 114.251 38.5677 114.251 39.197C114.251 39.7451 114.159 40.2507 113.983 40.7103C113.802 41.1735 113.548 41.5801 113.219 41.9266C112.897 42.266 112.512 42.5312 112.059 42.7186C111.614 42.906 111.119 43.0014 110.574 43.0014ZM111.041 42.3226C111.5 42.3226 111.882 42.2094 112.186 41.9832C112.498 41.7569 112.727 41.4563 112.879 41.078C113.028 40.7032 113.106 40.2966 113.106 39.8617C113.106 39.4198 113.042 38.9955 112.922 38.5889C112.809 38.1858 112.639 37.8217 112.413 37.4999C112.193 37.1817 111.932 36.9271 111.621 36.7362C111.31 36.5488 110.956 36.4533 110.56 36.4533C110.097 36.4533 109.711 36.5736 109.4 36.8069C109.089 37.0438 108.852 37.3443 108.693 37.712C108.53 38.0798 108.453 38.4687 108.453 38.8718C108.453 39.3243 108.509 39.7592 108.622 40.1729C108.743 40.5901 108.919 40.9613 109.146 41.2902C109.372 41.6119 109.644 41.8665 109.966 42.0539C110.284 42.2342 110.645 42.3226 111.041 42.3226Z" fill="white"/>
<path d="M120.386 40.0594L121.32 41.7424C121.412 41.9121 121.507 42.0394 121.602 42.1242C121.705 42.2091 121.793 42.2763 121.871 42.3222C121.945 42.3611 122.006 42.4035 122.055 42.4495C122.101 42.499 122.126 42.5697 122.126 42.6617C122.126 42.8243 121.974 42.9021 121.673 42.9021H120.4C120.238 42.9021 120.118 42.8844 120.033 42.8455C119.948 42.8102 119.905 42.743 119.905 42.6475C119.905 42.5733 119.927 42.5132 119.976 42.4637C120.022 42.4071 120.068 42.3505 120.118 42.2939C120.174 42.2303 120.202 42.1525 120.202 42.0677C120.202 41.9757 120.163 41.8555 120.089 41.7141L119.481 40.5968C119.396 40.4377 119.297 40.3352 119.184 40.2857C119.071 40.2291 118.876 40.1867 118.604 40.1584C118.339 40.123 118.138 40.1089 117.996 40.116C117.855 40.1266 117.784 40.215 117.784 40.3847V41.3464C117.784 41.6398 117.812 41.8555 117.869 41.9969C117.932 42.1313 118.01 42.2232 118.095 42.2798C118.18 42.3364 118.251 42.3894 118.307 42.4354C118.364 42.4849 118.392 42.5591 118.392 42.6617C118.392 42.7465 118.35 42.8102 118.265 42.8455C118.187 42.8844 118.056 42.9021 117.869 42.9021H116.539C116.179 42.9021 116.002 42.8243 116.002 42.6617C116.002 42.5591 116.034 42.4849 116.101 42.4354C116.165 42.3894 116.235 42.3364 116.313 42.2798C116.398 42.2232 116.472 42.1313 116.539 41.9969C116.603 41.8555 116.638 41.6398 116.638 41.3464V37.4571C116.638 37.1566 116.603 36.9409 116.539 36.8065C116.472 36.6757 116.398 36.5873 116.313 36.5378C116.235 36.4919 116.165 36.4494 116.101 36.4105C116.034 36.3646 116.002 36.2833 116.002 36.1701C116.002 36.0782 116.044 36.0145 116.129 35.9863C116.214 35.9509 116.348 35.9297 116.539 35.9297H118.519C119.244 35.9297 119.842 36.0393 120.316 36.255C120.786 36.4636 121.136 36.7358 121.362 37.0753C121.595 37.4076 121.716 37.7647 121.716 38.1501C121.716 38.6133 121.602 39.0093 121.376 39.3381C121.15 39.6598 120.818 39.9003 120.386 40.0594ZM119.029 39.6634C119.499 39.6917 119.863 39.5785 120.118 39.324C120.372 39.0694 120.499 38.7229 120.499 38.2774C120.499 37.9486 120.418 37.648 120.259 37.3723C120.096 37.1 119.866 36.8773 119.566 36.7075C119.272 36.5378 118.915 36.453 118.491 36.453C118.198 36.453 118.003 36.4742 117.911 36.5095C117.826 36.5484 117.784 36.6191 117.784 36.7217V39.1825C117.784 39.3063 117.855 39.4017 117.996 39.4654C118.145 39.5326 118.314 39.5785 118.505 39.6068C118.703 39.6351 118.876 39.6563 119.029 39.6634Z" fill="white"/>
<path d="M128.73 35.9297H129.621C129.752 35.9297 129.862 35.9509 129.947 35.9863C130.038 36.0145 130.088 36.0711 130.088 36.156C130.088 36.2514 130.053 36.3221 129.989 36.3681C129.932 36.407 129.851 36.4459 129.749 36.4813C129.653 36.5201 129.551 36.5803 129.437 36.6651C129.324 36.75 129.211 36.8843 129.098 37.0611L127.344 39.819V41.3464C127.344 41.6398 127.373 41.8555 127.429 41.9969C127.493 42.1313 127.563 42.2232 127.641 42.2798C127.726 42.3364 127.797 42.3894 127.853 42.4354C127.917 42.4849 127.952 42.5591 127.952 42.6617C127.952 42.7465 127.91 42.8102 127.825 42.8455C127.747 42.8844 127.617 42.9021 127.429 42.9021H126.086C125.736 42.9021 125.562 42.8243 125.562 42.6617C125.562 42.5591 125.591 42.4849 125.647 42.4354C125.711 42.3894 125.781 42.3364 125.859 42.2798C125.944 42.2232 126.018 42.1313 126.086 41.9969C126.149 41.8555 126.185 41.6398 126.185 41.3464V39.819L124.318 37.1035C124.194 36.9268 124.077 36.7924 123.964 36.7075C123.851 36.6156 123.752 36.5449 123.667 36.4954C123.589 36.4494 123.526 36.407 123.469 36.3681C123.42 36.3221 123.398 36.255 123.398 36.1701C123.398 36.0782 123.434 36.0145 123.512 35.9863C123.596 35.9509 123.717 35.9297 123.879 35.9297H125.492C125.622 35.9297 125.725 35.9509 125.803 35.9863C125.877 36.0145 125.916 36.0711 125.916 36.156C125.916 36.2514 125.888 36.3221 125.831 36.3681C125.774 36.407 125.718 36.4494 125.661 36.4954C125.605 36.5449 125.576 36.6156 125.576 36.7075C125.576 36.803 125.633 36.9338 125.746 37.1035L127.118 39.1684L128.405 37.0611C128.518 36.8843 128.575 36.75 128.575 36.6651C128.582 36.5803 128.564 36.5201 128.518 36.4813C128.479 36.4353 128.437 36.3929 128.391 36.354C128.341 36.3186 128.32 36.255 128.32 36.1701C128.32 36.0782 128.355 36.0145 128.433 35.9863C128.518 35.9509 128.617 35.9297 128.73 35.9297Z" fill="white"/>
<path d="M139.288 40.9787C139.38 40.9999 139.437 41.0423 139.458 41.1059C139.475 41.1731 139.479 41.2615 139.472 41.3747C139.461 41.6398 139.444 41.8626 139.415 42.0394C139.387 42.2197 139.352 42.3788 139.316 42.5202C139.277 42.6546 139.207 42.7536 139.104 42.8172C139.009 42.8738 138.807 42.9021 138.496 42.9021H134.989C134.798 42.9021 134.663 42.8879 134.578 42.8597C134.494 42.8314 134.451 42.7677 134.451 42.6617C134.451 42.5485 134.483 42.4743 134.55 42.4354C134.614 42.4 134.685 42.3576 134.762 42.3081C134.847 42.2515 134.921 42.1596 134.989 42.0252C135.052 41.8944 135.088 41.6787 135.088 41.3747V37.4854C135.088 37.1955 135.052 36.9833 134.989 36.849C134.932 36.7075 134.861 36.6085 134.776 36.552C134.692 36.4954 134.621 36.4459 134.564 36.3964C134.508 36.3504 134.479 36.2762 134.479 36.1701C134.479 36.0782 134.515 36.0145 134.593 35.9863C134.677 35.9509 134.812 35.9297 135.003 35.9297H136.332C136.689 35.9297 136.87 36.011 136.87 36.1701C136.87 36.2762 136.834 36.3504 136.771 36.3964C136.703 36.4459 136.629 36.4954 136.544 36.552C136.467 36.6085 136.396 36.7075 136.332 36.849C136.265 36.9833 136.233 37.1955 136.233 37.4854V41.8838C136.233 42.0535 136.283 42.1773 136.389 42.2515C136.491 42.3293 136.718 42.3647 137.068 42.3647L137.605 42.3505C137.86 42.3505 138.061 42.3187 138.213 42.2515C138.362 42.1773 138.485 42.0677 138.581 41.9262C138.673 41.7777 138.768 41.5939 138.864 41.3747C138.949 41.1979 139.023 41.0847 139.09 41.0352C139.154 40.9893 139.221 40.9716 139.288 40.9787Z" fill="white"/>
<path d="M141.687 41.3464V37.4854C141.687 37.1955 141.652 36.9833 141.588 36.849C141.532 36.7075 141.461 36.6085 141.376 36.552C141.291 36.4954 141.22 36.4459 141.164 36.3964C141.107 36.3504 141.079 36.2762 141.079 36.1701C141.079 36.0782 141.114 36.0145 141.192 35.9863C141.277 35.9509 141.411 35.9297 141.602 35.9297H142.932C143.289 35.9297 143.469 36.011 143.469 36.1701C143.469 36.2762 143.434 36.3504 143.37 36.3964C143.303 36.4459 143.229 36.4954 143.144 36.552C143.066 36.6085 142.995 36.7075 142.932 36.849C142.865 36.9833 142.833 37.1955 142.833 37.4854V41.3464C142.833 41.6398 142.861 41.8555 142.918 41.9969C142.981 42.1313 143.059 42.2232 143.144 42.2798C143.229 42.3364 143.299 42.3894 143.356 42.4354C143.413 42.4849 143.441 42.5591 143.441 42.6617C143.441 42.7465 143.398 42.8102 143.314 42.8455C143.236 42.8844 143.105 42.9021 142.918 42.9021H141.588C141.228 42.9021 141.051 42.8243 141.051 42.6617C141.051 42.5591 141.083 42.4849 141.15 42.4354C141.213 42.3894 141.284 42.3364 141.362 42.2798C141.447 42.2232 141.521 42.1313 141.588 41.9969C141.652 41.8555 141.687 41.6398 141.687 41.3464Z" fill="white"/>
<path d="M152.55 37.146L152.691 41.5444C152.698 41.7636 152.733 41.9227 152.79 42.0252C152.854 42.1313 152.924 42.2091 153.002 42.2657C153.087 42.3152 153.158 42.3611 153.214 42.4071C153.278 42.4566 153.313 42.5344 153.313 42.6475C153.313 42.743 153.271 42.8102 153.186 42.8455C153.108 42.8844 152.988 42.9021 152.818 42.9021H151.517C151.326 42.9021 151.192 42.8844 151.107 42.8455C151.022 42.8102 150.98 42.743 150.98 42.6475C150.98 42.545 151.008 42.4707 151.065 42.4212C151.121 42.3647 151.185 42.3152 151.263 42.2657C151.347 42.2091 151.418 42.1313 151.475 42.0252C151.531 41.9121 151.552 41.753 151.545 41.5444L151.461 37.4005L149.24 42.2374C149.201 42.3045 149.159 42.3576 149.113 42.3929C149.074 42.4318 149.007 42.4601 148.915 42.4778C148.809 42.5061 148.731 42.5061 148.674 42.4778C148.625 42.4424 148.59 42.4 148.561 42.3505L146.525 37.4713L146.383 41.6717C146.383 41.8626 146.401 42.0075 146.44 42.1101C146.486 42.2055 146.542 42.2798 146.61 42.3364C146.673 42.3859 146.737 42.4318 146.793 42.4778C146.85 42.5167 146.878 42.5768 146.878 42.6617C146.878 42.7571 146.839 42.8243 146.765 42.8597C146.687 42.8879 146.574 42.9021 146.426 42.9021H145.648C145.344 42.9021 145.195 42.8243 145.195 42.6617C145.195 42.5874 145.224 42.5273 145.28 42.4778C145.337 42.4318 145.4 42.3859 145.478 42.3364C145.552 42.2798 145.62 42.2055 145.676 42.1101C145.74 42.0075 145.775 41.8626 145.775 41.6717L145.973 37.146C145.973 36.9763 145.948 36.8454 145.902 36.75C145.853 36.658 145.793 36.5803 145.719 36.5237C145.651 36.4671 145.591 36.4176 145.535 36.3681C145.478 36.3221 145.45 36.2514 145.45 36.156C145.45 36.0711 145.478 36.0145 145.535 35.9863C145.598 35.9509 145.712 35.9297 145.874 35.9297H146.85C147.009 35.9297 147.122 36.0075 147.189 36.156L149.198 40.9221L151.39 36.156C151.453 36.0075 151.563 35.9297 151.715 35.9297H152.634C152.794 35.9297 152.907 35.9509 152.974 35.9863C153.037 36.0145 153.073 36.0711 153.073 36.156C153.073 36.2514 153.045 36.3221 152.988 36.3681C152.931 36.4176 152.864 36.4671 152.79 36.5237C152.723 36.5732 152.663 36.6439 152.606 36.7358C152.557 36.8207 152.539 36.9586 152.55 37.146Z" fill="white"/>
<path d="M155.685 41.3464V37.4854C155.685 37.1955 155.65 36.9833 155.586 36.849C155.53 36.7075 155.459 36.6085 155.374 36.552C155.289 36.4954 155.219 36.4459 155.162 36.3964C155.105 36.3504 155.077 36.2762 155.077 36.1701C155.077 36.0782 155.112 36.0145 155.19 35.9863C155.275 35.9509 155.409 35.9297 155.6 35.9297H156.93C157.287 35.9297 157.467 36.011 157.467 36.1701C157.467 36.2762 157.432 36.3504 157.368 36.3964C157.301 36.4459 157.227 36.4954 157.142 36.552C157.064 36.6085 156.993 36.7075 156.93 36.849C156.863 36.9833 156.831 37.1955 156.831 37.4854V41.3464C156.831 41.6398 156.859 41.8555 156.916 41.9969C156.979 42.1313 157.057 42.2232 157.142 42.2798C157.227 42.3364 157.298 42.3894 157.354 42.4354C157.411 42.4849 157.439 42.5591 157.439 42.6617C157.439 42.7465 157.397 42.8102 157.312 42.8455C157.234 42.8844 157.103 42.9021 156.916 42.9021H155.586C155.226 42.9021 155.049 42.8243 155.049 42.6617C155.049 42.5591 155.081 42.4849 155.148 42.4354C155.211 42.3894 155.282 42.3364 155.36 42.2798C155.445 42.2232 155.519 42.1313 155.586 41.9969C155.65 41.8555 155.685 41.6398 155.685 41.3464Z" fill="white"/>
<path d="M162.604 36.948V41.3464C162.604 41.6398 162.633 41.8555 162.689 41.9969C162.746 42.1313 162.809 42.2232 162.887 42.2798C162.972 42.3364 163.043 42.3894 163.099 42.4354C163.163 42.4848 163.198 42.5591 163.198 42.6616C163.198 42.7465 163.159 42.8101 163.085 42.8455C163.007 42.8844 162.873 42.9021 162.675 42.9021H161.331C160.992 42.9021 160.822 42.8243 160.822 42.6616C160.822 42.5591 160.851 42.4848 160.907 42.4354C160.971 42.3894 161.041 42.3364 161.119 42.2798C161.204 42.2232 161.275 42.1313 161.331 41.9969C161.395 41.8555 161.43 41.6398 161.43 41.3464V36.9621C161.43 36.803 161.392 36.6863 161.317 36.6085C161.25 36.5343 161.126 36.4954 160.95 36.4954C160.702 36.4954 160.511 36.5307 160.37 36.5944C160.235 36.6616 160.122 36.7712 160.03 36.9197C159.935 37.0611 159.832 37.2414 159.719 37.4571C159.585 37.7117 159.457 37.8389 159.337 37.8389C159.242 37.8389 159.182 37.8036 159.153 37.7258C159.125 37.6516 159.115 37.5632 159.125 37.4571C159.132 37.1954 159.146 36.9727 159.168 36.7924C159.185 36.6156 159.217 36.453 159.267 36.3115C159.295 36.1807 159.358 36.0852 159.465 36.0287C159.567 35.965 159.769 35.9297 160.073 35.9297L163.948 35.9155C164.259 35.9155 164.46 35.9509 164.556 36.0145C164.658 36.0817 164.729 36.1807 164.768 36.3115C164.842 36.5661 164.888 36.9444 164.91 37.4429C164.917 37.549 164.902 37.6409 164.867 37.7258C164.839 37.8036 164.775 37.8389 164.683 37.8389C164.57 37.8389 164.446 37.7117 164.316 37.4571C164.202 37.2414 164.093 37.0611 163.99 36.9197C163.895 36.7712 163.778 36.6616 163.637 36.5944C163.502 36.5201 163.318 36.4812 163.085 36.4812C162.915 36.4812 162.792 36.5201 162.717 36.5944C162.64 36.6722 162.604 36.7888 162.604 36.948Z" fill="white"/>
<path d="M171.808 40.9786C171.892 40.9999 171.942 41.0423 171.963 41.1059C171.981 41.1731 171.984 41.2615 171.977 41.3746C171.967 41.6398 171.949 41.8626 171.921 42.0394C171.892 42.2197 171.857 42.3788 171.822 42.5202C171.793 42.6546 171.726 42.7536 171.624 42.8172C171.518 42.8738 171.313 42.9021 171.001 42.9021H167.098C166.907 42.9021 166.773 42.8879 166.688 42.8596C166.603 42.8313 166.561 42.7677 166.561 42.6616C166.561 42.5485 166.592 42.4742 166.66 42.4354C166.723 42.4 166.794 42.3576 166.872 42.3081C166.957 42.2515 167.031 42.1596 167.098 42.0252C167.162 41.8944 167.197 41.6787 167.197 41.3746V37.4571C167.197 37.1566 167.162 36.9409 167.098 36.8065C167.031 36.6757 166.957 36.5873 166.872 36.5378C166.794 36.4918 166.723 36.4494 166.66 36.4105C166.592 36.3646 166.561 36.2832 166.561 36.1701C166.561 36.0782 166.603 36.0145 166.688 35.9862C166.773 35.9509 166.907 35.9297 167.098 35.9297L170.86 35.9155C171.15 35.9155 171.341 35.9403 171.426 35.9862C171.518 36.0357 171.588 36.1241 171.638 36.255C171.694 36.3893 171.74 36.5378 171.779 36.7075C171.825 36.8772 171.868 37.0752 171.907 37.3015C171.924 37.4147 171.924 37.5101 171.907 37.5844C171.896 37.6516 171.853 37.6975 171.779 37.7258C171.684 37.7541 171.602 37.7399 171.539 37.6834C171.472 37.6268 171.404 37.5384 171.341 37.4147C171.15 37.1035 170.945 36.8702 170.719 36.7075C170.492 36.5484 170.209 36.4671 169.87 36.4671H169.361C169.067 36.4671 168.845 36.4883 168.696 36.5237C168.555 36.552 168.459 36.6015 168.413 36.6651C168.364 36.7323 168.343 36.8207 168.343 36.9338V38.0369C168.343 38.2632 168.403 38.4011 168.526 38.4471C168.657 38.4966 168.83 38.5178 169.05 38.5178H169.248C169.474 38.5178 169.647 38.5037 169.771 38.4754C169.891 38.44 169.983 38.4011 170.04 38.3622C170.096 38.3163 170.142 38.2774 170.181 38.2491C170.227 38.2137 170.287 38.1925 170.365 38.1925C170.506 38.1925 170.598 38.2986 170.648 38.5037L170.86 39.4937C170.906 39.674 170.917 39.7977 170.888 39.8614C170.867 39.9179 170.818 39.9604 170.733 39.9886C170.637 40.0169 170.552 39.9886 170.478 39.9038C170.4 39.8119 170.315 39.6987 170.224 39.5644C170.128 39.4335 170.004 39.3169 169.856 39.2108C169.704 39.1083 169.502 39.0552 169.248 39.0552H169.05C168.83 39.0552 168.657 39.08 168.526 39.1259C168.403 39.1754 168.343 39.3098 168.343 39.5361V41.8838C168.343 41.9969 168.364 42.0924 168.413 42.1666C168.47 42.2338 168.572 42.2869 168.724 42.3222C168.873 42.3505 169.096 42.3646 169.389 42.3646L170.11 42.3505C170.365 42.3505 170.566 42.3187 170.719 42.2515C170.867 42.1772 170.991 42.0676 171.086 41.9262C171.178 41.7777 171.274 41.5939 171.369 41.3746C171.454 41.1979 171.528 41.0847 171.595 41.0352C171.659 40.9893 171.73 40.9716 171.808 40.9786Z" fill="white"/>
<path d="M174.225 35.9297H176.431C177.138 35.9297 177.736 36.0287 178.227 36.2267C178.715 36.4247 179.118 36.6899 179.429 37.0187C179.748 37.3404 179.981 37.7046 180.122 38.1077C180.271 38.5037 180.349 38.8997 180.349 39.2957C180.349 39.7765 180.271 40.2362 180.122 40.6675C179.981 41.0918 179.758 41.4737 179.458 41.8131C179.164 42.1525 178.786 42.4212 178.326 42.6192C177.874 42.8102 177.329 42.9021 176.7 42.9021H174.225C174.034 42.9021 173.9 42.8879 173.815 42.8597C173.73 42.8314 173.688 42.7677 173.688 42.6617C173.688 42.5485 173.719 42.4743 173.786 42.4354C173.85 42.4 173.921 42.3576 173.999 42.3081C174.083 42.2515 174.158 42.1596 174.225 42.0252C174.289 41.8944 174.324 41.6787 174.324 41.3747V37.4571C174.324 37.1566 174.289 36.9409 174.225 36.8065C174.158 36.6757 174.083 36.5873 173.999 36.5378C173.921 36.4919 173.85 36.4494 173.786 36.4105C173.719 36.3646 173.688 36.2833 173.688 36.1701C173.688 36.0782 173.73 36.0145 173.815 35.9863C173.9 35.9509 174.034 35.9297 174.225 35.9297ZM176.587 42.3788C177.227 42.3788 177.732 42.2621 178.1 42.0252C178.475 41.7919 178.74 41.4807 178.892 41.0918C179.041 40.6958 179.118 40.2715 179.118 39.819C179.118 39.179 178.995 38.6027 178.751 38.0935C178.514 37.5844 178.171 37.1813 177.718 36.8773C177.266 36.5767 176.728 36.4247 176.106 36.4247C175.858 36.4247 175.689 36.453 175.597 36.5095C175.512 36.5661 175.469 36.6863 175.469 36.8631V41.7848C175.469 41.9192 175.498 42.0323 175.554 42.1242C175.611 42.2091 175.713 42.2763 175.865 42.3222C176.025 42.3611 176.265 42.3788 176.587 42.3788Z" fill="white"/>
<mask id="mask0_149_22" style="mask-type:luminance" maskUnits="userSpaceOnUse" x="0" y="8" width="29" height="31">
<path d="M0 8.99121H28.0098V38.9209H0V8.99121Z" fill="white"/>
</mask>
<g mask="url(#mask0_149_22)">
<path d="M2.25103 20.1251C2.08485 20.4645 1.92928 20.8075 1.78078 21.1575C0.978176 23.0562 0.44075 25.0362 0.175573 27.0657H27.6126V20.1251H2.25103ZM27.6126 31.2555V38.1961H1.45196C0.610464 35.9721 0.122537 33.6421 0.00585938 31.2555H27.6126ZM4.86037 15.9353C5.42962 15.2105 6.04129 14.521 6.69893 13.8634C8.77792 11.7844 11.1963 10.1474 13.8905 8.99121H28.0015V15.9353H4.86037Z" fill="white"/>
</g>
<mask id="mask1_149_22" style="mask-type:luminance" maskUnits="userSpaceOnUse" x="3" y="9" width="43" height="45">
<path d="M3.57031 9.05127H45.8855V53.1166H3.57031V9.05127Z" fill="white"/>
</mask>
<g mask="url(#mask1_149_22)">
<path d="M13.8406 43.2726H4.13867C4.89885 44.3545 5.75095 45.3728 6.69852 46.3169C8.80579 48.4241 11.2596 50.0788 13.9927 51.235C16.8247 52.4336 19.8301 53.0382 22.9274 53.0382C26.0211 53.0382 29.0264 52.4336 31.8585 51.235C34.5916 50.0788 37.0454 48.4241 39.1527 46.3169C41.2599 44.2131 42.9146 41.7558 44.0708 39.0263C45.2659 36.1942 45.874 33.1853 45.874 30.0915C45.874 26.9943 45.2659 23.9889 44.0673 21.1568C42.9111 18.4238 41.2564 15.97 39.1527 13.8627C37.2611 11.9746 35.0902 10.4472 32.6894 9.31934V17.4055C33.2304 17.8227 33.7501 18.2788 34.2416 18.7738C37.2681 21.7968 38.9299 25.8134 38.9299 30.0915C38.9299 34.3662 37.2681 38.3863 34.2416 41.4093C31.2186 44.4323 27.202 46.0976 22.9238 46.0976C19.6321 46.0976 16.4924 45.1077 13.8406 43.2726Z" fill="white"/>
</g>
<mask id="mask2_149_22" style="mask-type:luminance" maskUnits="userSpaceOnUse" x="28" y="0" width="8" height="26">
<path d="M28.916 0H35.252V25.3439H28.916V0Z" fill="white"/>
</mask>
<g mask="url(#mask2_149_22)">
<mask id="mask3_149_22" style="mask-type:luminance" maskUnits="userSpaceOnUse" x="26" y="0" width="9" height="26">
<path d="M28.5907 0.350098L34.6791 0.852166L32.6744 25.2096L26.5859 24.7075L28.5907 0.350098Z" fill="white"/>
</mask>
<g mask="url(#mask3_149_22)">
<mask id="mask4_149_22" style="mask-type:luminance" maskUnits="userSpaceOnUse" x="26" y="0" width="9" height="26">
<path d="M28.5907 0.350098L34.6791 0.852166L32.6744 25.2096L26.5859 24.7075L28.5907 0.350098Z" fill="white"/>
</mask>
<g mask="url(#mask4_149_22)">
<mask id="mask5_149_22" style="mask-type:luminance" maskUnits="userSpaceOnUse" x="26" y="0" width="9" height="26">
<path d="M28.5907 0.350098L34.6791 0.852166L32.6744 25.2096L26.5859 24.7075L28.5907 0.350098Z" fill="white"/>
</mask>
<g mask="url(#mask5_149_22)">
<path d="M34.6767 0.859375C30.3455 7.96259 29.3024 14.1006 31.6749 22.1018C31.933 23.0247 32.3643 24.2834 32.6719 25.2062C32.3537 24.7501 32.0532 24.2834 31.7739 23.8025C27.2871 16.1725 28.1639 7.07866 34.6767 0.859375Z" fill="white"/>
</g>
</g>
</g>
</g>
</svg>
